HIERARCHY
ROOT Hips
{
	OFFSET 0.000000 100.481300 0.000000
	CHANNELS 6 Xposition Yposition Zposition Xrotation Yrotation Zrotation
	JOINT Spine
	{
		OFFSET -0.279200 12.230698 -2.892100
		CHANNELS 3 Xrotation Yrotation Zrotation
		JOINT Spine1
		{
			OFFSET -0.325700 14.269203 -3.374200
			CHANNELS 3 Xrotation Yrotation Zrotation
			JOINT Spine2
			{
				OFFSET -0.372300 16.307602 -0.352600
				CHANNELS 3 Xrotation Yrotation Zrotation
				JOINT Neck
				{
					OFFSET -0.418800 17.814194 8.416900
					CHANNELS 3 Xrotation Yrotation Zrotation
					JOINT Head
					{
						OFFSET 0.000000 7.031097 3.806800
						CHANNELS 3 Xrotation Yrotation Zrotation
						JOINT HeadTop_End
						{
							OFFSET 0.000000 24.646606 12.978600
							CHANNELS 3 Xrotation Yrotation Zrotation
							End Site
							{
								OFFSET 0.000000 27.854965 0.000000
							}
						}
					}
				}
				JOINT LeftShoulder
				{
					OFFSET 16.952999 14.495407 -7.737500
					CHANNELS 3 Xrotation Yrotation Zrotation
					JOINT LeftArm
					{
						OFFSET 9.308998 -2.777710 0.208600
						CHANNELS 3 Xrotation Yrotation Zrotation
						JOINT LeftForeArm
						{
							OFFSET 29.972298 0.000000 0.000000
							CHANNELS 3 Xrotation Yrotation Zrotation
							JOINT LeftHand
							{
								OFFSET 26.026505 0.000000 0.000000
								CHANNELS 3 Xrotation Yrotation Zrotation
								JOINT LeftHandThumb1
								{
									OFFSET 12.240501 -7.147949 9.207150
									CHANNELS 3 Xrotation Yrotation Zrotation
									JOINT LeftHandThumb2
									{
										OFFSET 4.138618 -2.389435 2.389433
										CHANNELS 3 Xrotation Yrotation Zrotation
										JOINT LeftHandThumb3
										{
											OFFSET 2.726913 -1.574387 1.574386
											CHANNELS 3 Xrotation Yrotation Zrotation
											JOINT LeftHandThumb4
											{
												OFFSET 3.941010 -2.275345 2.275342
												CHANNELS 3 Xrotation Yrotation Zrotation
												End Site
												{
													OFFSET -0.005798 5.087799 0.009903
												}
											}
										}
									}
								}
								JOINT LeftHandIndex1
								{
									OFFSET 24.424698 -1.985611 5.953459
									CHANNELS 3 Xrotation Yrotation Zrotation
									JOINT LeftHandIndex2
									{
										OFFSET 6.426697 0.000000 0.000000
										CHANNELS 3 Xrotation Yrotation Zrotation
										JOINT LeftHandIndex3
										{
											OFFSET 5.337898 0.000000 0.000000
											CHANNELS 3 Xrotation Yrotation Zrotation
											JOINT LeftHandIndex4
											{
												OFFSET 4.409401 0.000000 0.000000
												CHANNELS 3 Xrotation Yrotation Zrotation
												End Site
												{
													OFFSET 0.000000 4.409363 0.014373
												}
											}
										}
									}
								}
								JOINT LeftHandMiddle1
								{
									OFFSET 23.810104 0.000000 0.000000
									CHANNELS 3 Xrotation Yrotation Zrotation
									JOINT LeftHandMiddle2
									{
										OFFSET 7.176498 0.000000 0.000000
										CHANNELS 3 Xrotation Yrotation Zrotation
										JOINT LeftHandMiddle3
										{
											OFFSET 6.774902 0.000000 0.000000
											CHANNELS 3 Xrotation Yrotation Zrotation
											JOINT LeftHandMiddle4
											{
												OFFSET 5.403328 0.000000 0.000000
												CHANNELS 3 Xrotation Yrotation Zrotation
												End Site
												{
													OFFSET -0.027702 5.403244 0.017414
												}
											}
										}
									}
								}
								JOINT LeftHandRing1
								{
									OFFSET 22.908401 -0.839279 -6.020567
									CHANNELS 3 Xrotation Yrotation Zrotation
									JOINT LeftHandRing2
									{
										OFFSET 6.337502 0.000000 0.000000
										CHANNELS 3 Xrotation Yrotation Zrotation
										JOINT LeftHandRing3
										{
											OFFSET 5.779297 0.000000 0.000000
											CHANNELS 3 Xrotation Yrotation Zrotation
											JOINT LeftHandRing4
											{
												OFFSET 4.965698 0.000000 0.000000
												CHANNELS 3 Xrotation Yrotation Zrotation
												End Site
												{
													OFFSET 0.000000 4.965668 0.016186
												}
											}
										}
									}
								}
								JOINT LeftHandPinky1
								{
									OFFSET 20.037003 -1.530319 -10.950146
									CHANNELS 3 Xrotation Yrotation Zrotation
									JOINT LeftHandPinky2
									{
										OFFSET 5.254700 0.000000 0.000000
										CHANNELS 3 Xrotation Yrotation Zrotation
										JOINT LeftHandPinky3
										{
											OFFSET 4.810204 0.000000 0.000000
											CHANNELS 3 Xrotation Yrotation Zrotation
											JOINT LeftHandPinky4
											{
												OFFSET 3.647202 0.000000 0.000000
												CHANNELS 3 Xrotation Yrotation Zrotation
												End Site
												{
													OFFSET 0.000000 3.647186 0.011889
												}
											}
										}
									}
								}
							}
						}
					}
				}
				JOINT RightShoulder
				{
					OFFSET -15.141001 14.495407 -7.737500
					CHANNELS 3 Xrotation Yrotation Zrotation
					JOINT RightArm
					{
						OFFSET -9.308998 -2.777710 0.208500
						CHANNELS 3 Xrotation Yrotation Zrotation
						JOINT RightForeArm
						{
							OFFSET -29.972300 0.000000 0.000000
							CHANNELS 3 Xrotation Yrotation Zrotation
							JOINT RightHand
							{
								OFFSET -26.026505 0.000000 0.000000
								CHANNELS 3 Xrotation Yrotation Zrotation
								JOINT RightHandThumb1
								{
									OFFSET -12.240601 -7.148026 9.207092
									CHANNELS 3 Xrotation Yrotation Zrotation
									JOINT RightHandThumb2
									{
										OFFSET -4.138618 -2.389435 2.389433
										CHANNELS 3 Xrotation Yrotation Zrotation
										JOINT RightHandThumb3
										{
											OFFSET -2.726974 -1.574417 1.574421
											CHANNELS 3 Xrotation Yrotation Zrotation
											JOINT RightHandThumb4
											{
												OFFSET -3.941010 -2.275345 2.275343
												CHANNELS 3 Xrotation Yrotation Zrotation
												End Site
												{
													OFFSET 0.005814 5.087799 0.009927
												}
											}
										}
									}
								}
								JOINT RightHandIndex1
								{
									OFFSET -24.424698 -1.985657 5.953444
									CHANNELS 3 Xrotation Yrotation Zrotation
									JOINT RightHandIndex2
									{
										OFFSET -6.426697 0.000000 0.000000
										CHANNELS 3 Xrotation Yrotation Zrotation
										JOINT RightHandIndex3
										{
											OFFSET -5.337898 0.000000 0.000000
											CHANNELS 3 Xrotation Yrotation Zrotation
											JOINT RightHandIndex4
											{
												OFFSET -4.409401 0.000000 0.000000
												CHANNELS 3 Xrotation Yrotation Zrotation
												End Site
												{
													OFFSET 0.000000 4.409363 0.014408
												}
											}
										}
									}
								}
								JOINT RightHandMiddle1
								{
									OFFSET -23.810097 0.000000 0.000000
									CHANNELS 3 Xrotation Yrotation Zrotation
									JOINT RightHandMiddle2
									{
										OFFSET -7.176498 0.000000 0.000000
										CHANNELS 3 Xrotation Yrotation Zrotation
										JOINT RightHandMiddle3
										{
											OFFSET -6.774902 0.000000 0.000000
											CHANNELS 3 Xrotation Yrotation Zrotation
											JOINT RightHandMiddle4
											{
												OFFSET -5.403328 0.000000 0.000000
												CHANNELS 3 Xrotation Yrotation Zrotation
												End Site
												{
													OFFSET 0.027702 5.403244 0.017457
												}
											}
										}
									}
								}
								JOINT RightHandRing1
								{
									OFFSET -22.908302 -0.839325 -6.020576
									CHANNELS 3 Xrotation Yrotation Zrotation
									JOINT RightHandRing2
									{
										OFFSET -6.337502 0.000000 0.000000
										CHANNELS 3 Xrotation Yrotation Zrotation
										JOINT RightHandRing3
										{
											OFFSET -5.779297 0.000000 0.000000
											CHANNELS 3 Xrotation Yrotation Zrotation
											JOINT RightHandRing4
											{
												OFFSET -4.965698 0.000000 0.000000
												CHANNELS 3 Xrotation Yrotation Zrotation
												End Site
												{
													OFFSET 0.000000 4.965668 0.016226
												}
											}
										}
									}
								}
								JOINT RightHandPinky1
								{
									OFFSET -20.037003 -1.530334 -10.950259
									CHANNELS 3 Xrotation Yrotation Zrotation
									JOINT RightHandPinky2
									{
										OFFSET -5.254700 0.000000 0.000000
										CHANNELS 3 Xrotation Yrotation Zrotation
										JOINT RightHandPinky3
										{
											OFFSET -4.810204 0.000000 0.000000
											CHANNELS 3 Xrotation Yrotation Zrotation
											JOINT RightHandPinky4
											{
												OFFSET -3.647202 0.000000 0.000000
												CHANNELS 3 Xrotation Yrotation Zrotation
												End Site
												{
													OFFSET 0.000000 3.647186 0.011917
												}
											}
										}
									}
								}
							}
						}
					}
				}
			}
		}
	}
	JOINT LeftUpLeg
	{
		OFFSET 15.427100 -6.655098 0.678600
		CHANNELS 3 Xrotation Yrotation Zrotation
		JOINT LeftLeg
		{
			OFFSET 4.081073 -39.591068 13.024000
			CHANNELS 3 Xrotation Yrotation Zrotation
			JOINT LeftFoot
			{
				OFFSET -4.081074 -37.707932 -15.979700
				CHANNELS 3 Xrotation Yrotation Zrotation
				JOINT LeftToeBase
				{
					OFFSET 5.346399 -15.068900 20.645000
					CHANNELS 3 Xrotation Yrotation Zrotation
					JOINT LeftToe_End
					{
						OFFSET 2.754700 0.931300 11.300900
						CHANNELS 3 Xrotation Yrotation Zrotation
						End Site
						{
							OFFSET 0.000000 11.669021 0.000000
						}
					}
				}
			}
		}
	}
	JOINT RightUpLeg
	{
		OFFSET -15.569500 -6.655098 0.678600
		CHANNELS 3 Xrotation Yrotation Zrotation
		JOINT RightLeg
		{
			OFFSET -4.081825 -39.591045 13.023800
			CHANNELS 3 Xrotation Yrotation Zrotation
			JOINT RightFoot
			{
				OFFSET 4.081824 -37.707954 -15.979600
				CHANNELS 3 Xrotation Yrotation Zrotation
				JOINT RightToeBase
				{
					OFFSET -5.346400 -15.068900 20.645000
					CHANNELS 3 Xrotation Yrotation Zrotation
					JOINT RightToe_End
					{
						OFFSET -2.754700 0.931300 11.300900
						CHANNELS 3 Xrotation Yrotation Zrotation
						End Site
						{
							OFFSET 0.000000 11.669021 0.000000
						}
					}
				}
			}
		}
	}
}
MOTION
Frames: 4
Frame Time: 0.033333
0.909133 78.908386 119.659805 -15.066463 -26.923494 -8.594902 11.318637 -7.548232 8.547000 2.316211 -2.711377 0.787884 2.305217 -2.712276 0.817607 13.840033 13.875752 -7.241994 14.603832 10.577315 4.160923 -0.000001 -0.000001 -0.000000 -18.979110 -5.629907 -5.697072 -26.030681 -11.736200 -52.764150 0.000145 -65.795349 0.000126 -130.593231 -4.406564 24.465555 4.382560 8.556231 3.090421 19.473199 -1.474911 7.636928 -4.536193 -9.613088 1.492956 -0.000001 0.000000 -0.000001 -0.385652 3.727656 -37.080773 2.942876 5.079327 -60.152868 0.513676 2.400825 -24.150490 -0.000001 -0.000001 -0.000001 0.405913 5.507025 -52.453182 3.387155 5.308635 -65.057470 0.282014 1.797432 -17.832400 -0.000004 0.000002 0.000004 -0.074381 5.736779 -61.061440 4.094839 5.582158 -72.504528 0.582664 2.548984 -25.748001 -0.000001 0.000004 -0.000000 -5.578281 4.690732 -71.520721 3.418060 5.322843 -65.391309 0.248866 1.690969 -16.743097 0.000000 -0.000003 0.000001 -20.144887 -5.222019 2.941659 -6.978030 70.978732 51.316533 -0.000092 101.197264 0.000074 -61.638667 -16.974845 -35.400785 8.377126 -4.904128 11.022010 21.620194 -18.183890 -18.379233 -0.702893 -49.821213 -32.535159 -0.000002 0.000000 0.000003 -0.940584 1.654160 12.733058 0.812488 -2.630224 34.327547 0.615642 -2.316058 29.767829 0.000000 0.000000 -0.000000 3.413057 -7.186253 51.650259 6.296816 -4.359576 110.634673 0.248725 -1.503067 18.790286 0.000001 -0.000000 0.000000 -3.349049 -2.600436 57.010578 5.440871 -4.590888 99.698181 1.689398 -3.590703 50.382248 0.000001 0.000001 -0.000000 -3.996461 -3.303955 64.593864 4.058881 -4.618640 82.610537 2.315547 -4.026785 59.787234 -0.000000 -0.000000 0.000002 -8.535083 38.860928 13.865902 67.162179 -7.060213 1.469221 -2.511891 -5.265616 16.831820 -47.590600 1.562664 -2.350034 -0.000000 0.000000 -0.000000 -29.608129 -7.229437 16.629907 43.488463 -5.088609 -6.161290 -4.668507 -26.518363 -10.279302 -0.578686 0.000006 0.000001 -0.000000 -0.000005 -0.000000 
0.358328 78.293175 122.925522 -16.426475 -26.872561 -9.716220 12.173161 -6.798556 8.338194 2.641645 -2.551668 0.770472 2.631731 -2.552243 0.804277 13.591170 13.915710 -7.265393 14.026205 10.580259 4.212806 0.000001 0.000002 -0.000001 -19.771984 -5.501386 -5.383535 -26.489559 -12.881330 -53.649480 -0.000003 -64.710496 0.000001 -130.189867 -4.056069 24.553277 4.450926 8.765321 3.095323 19.473197 -1.474910 7.636926 -4.536196 -9.613091 1.492956 -0.000001 0.000001 -0.000002 -0.349440 3.770430 -37.011241 2.942872 5.079338 -60.152827 0.513680 2.400826 -24.150490 -0.000000 -0.000001 0.000000 0.405913 5.507027 -52.453182 3.387157 5.308633 -65.057470 0.282017 1.797433 -17.832398 -0.000001 -0.000002 0.000004 -0.074381 5.736781 -61.061434 4.086518 5.579552 -72.419171 0.582667 2.548981 -25.748001 0.000001 0.000000 0.000002 -5.783607 4.657631 -71.708647 3.393284 5.311472 -65.123941 0.232499 1.635631 -16.179569 -0.000003 -0.000005 -0.000000 -21.023421 -5.516179 2.445542 -6.543152 70.731718 51.222795 0.000221 101.454790 -0.000216 -62.132824 -16.217891 -35.967605 8.377127 -4.904129 11.022010 21.620194 -18.183891 -18.379235 -0.702896 -49.821213 -32.535159 -0.000002 0.000000 0.000002 -0.936328 1.660283 12.670938 0.798898 -2.610192 34.029700 0.615642 -2.316058 29.767832 -0.000000 0.000000 -0.000000 3.413057 -7.186254 51.650263 6.296816 -4.359576 110.634667 0.248724 -1.503067 18.790288 0.000000 0.000000 -0.000000 -3.349049 -2.600436 57.010578 5.440871 -4.590889 99.698181 1.689399 -3.590705 50.382238 -0.000000 -0.000000 -0.000002 -3.996460 -3.303955 64.593864 4.058880 -4.618640 82.610537 2.315547 -4.026786 59.787241 -0.000000 -0.000000 0.000004 -15.797884 37.025694 18.919347 71.006237 -4.285805 1.517508 6.029091 -5.252824 18.846710 -52.498866 2.978480 -3.630535 -0.000000 -0.000001 -0.000000 -27.218164 -7.356644 16.497103 46.821824 -4.695868 -5.886247 -8.880604 -26.596253 -9.889415 -0.544526 -0.000040 0.000001 0.000000 0.000002 0.000000 
-0.048380 77.970451 126.496986 -17.687692 -26.719207 -10.621575 13.003987 -6.047485 8.083274 3.006471 -2.407761 0.733395 2.997844 -2.408216 0.770745 13.349402 13.961830 -7.286074 13.809192 10.571360 4.363798 -0.000001 -0.000002 -0.000000 -20.564011 -5.381676 -5.069657 -27.272708 -14.037692 -54.730934 -0.000022 -63.422630 -0.000028 -129.701741 -3.603032 24.569987 4.512190 8.953243 3.099531 19.473199 -1.474912 7.636925 -4.536194 -9.613087 1.492957 -0.000000 -0.000003 -0.000000 -0.316991 3.808926 -36.948728 2.942873 5.079302 -60.152841 0.513673 2.400825 -24.150492 -0.000002 0.000000 -0.000002 0.405913 5.507028 -52.453182 3.387156 5.308635 -65.057470 0.282013 1.797434 -17.832393 -0.000002 -0.000002 0.000004 -0.074381 5.736774 -61.061434 4.079081 5.577182 -72.342495 0.582664 2.548984 -25.748001 -0.000000 -0.000000 -0.000001 -5.968261 4.629118 -71.877707 3.371068 5.301140 -64.883792 0.218271 1.585796 -15.673295 -0.000001 0.000002 -0.000001 -21.903281 -5.797281 1.943311 -6.378787 70.332336 51.385023 0.000062 101.717889 -0.000080 -62.457627 -15.603646 -36.459297 8.377127 -4.904130 11.022009 21.620195 -18.183891 -18.379233 -0.702894 -49.821213 -32.535162 0.000001 -0.000001 0.000002 -0.932460 1.665817 12.615160 0.786725 -2.592149 33.762144 0.615643 -2.316058 29.767829 0.000000 0.000001 -0.000001 3.413057 -7.186253 51.650259 6.296817 -4.359576 110.634673 0.248725 -1.503067 18.790288 0.000000 -0.000000 -0.000000 -3.349049 -2.600437 57.010582 5.440871 -4.590887 99.698174 1.689399 -3.590704 50.382238 0.000000 -0.000001 -0.000001 -3.996460 -3.303955 64.593864 4.058880 -4.618641 82.610537 2.315549 -4.026785 59.787234 -0.000000 -0.000000 0.000001 -24.462575 34.731567 23.876402 73.031361 -3.390316 1.704521 19.067262 -3.430504 21.019426 -60.310441 4.327037 -4.267615 -0.000000 0.000000 -0.000000 -24.277047 -7.029068 15.991971 49.524431 -3.931334 -5.515041 -13.129272 -27.007929 -9.446091 -0.503017 -0.000001 0.000006 0.000000 0.000001 0.000000 
-0.254038 78.084145 129.499969 -18.565513 -26.441539 -11.122009 13.569344 -5.566021 7.703896 3.383792 -2.298538 0.685384 3.376596 -2.299249 0.725026 13.125999 14.012594 -7.237745 13.418978 10.772832 4.525499 0.000000 0.000001 -0.000000 -21.353910 -5.270873 -4.756135 -27.924315 -15.197246 -55.547634 -0.000010 -62.279249 -0.000015 -129.467943 -3.287536 24.518583 4.566016 9.118510 3.103106 19.473197 -1.474907 7.636926 -4.536194 -9.613090 1.492956 0.000003 -0.000003 0.000001 -0.288531 3.842837 -36.893806 2.942872 5.079328 -60.152875 0.513673 2.400825 -24.150492 0.000001 -0.000000 0.000000 0.405913 5.507027 -52.453179 3.387157 5.308636 -65.057463 0.282013 1.797432 -17.832400 0.000001 -0.000000 -0.000001 -0.074381 5.736778 -61.061434 4.072534 5.575108 -72.275061 0.582666 2.548987 -25.748001 0.000002 0.000000 0.000002 -6.130797 4.604996 -72.026510 3.351611 5.292013 -64.672575 0.206115 1.541843 -15.228091 -0.000002 -0.000001 -0.000002 -22.782987 -6.064859 1.436068 -6.749917 69.907164 52.212094 0.000145 101.909079 -0.000136 -62.566015 -15.164318 -36.775692 8.377127 -4.904130 11.022010 21.620197 -18.183891 -18.379233 -0.702896 -49.821210 -32.535166 -0.000003 0.000002 -0.000000 -0.929096 1.670644 12.566068 0.776124 -2.576214 33.526837 0.615643 -2.316058 29.767826 -0.000000 -0.000000 -0.000000 3.413058 -7.186254 51.650266 6.296816 -4.359576 110.634667 0.248724 -1.503068 18.790288 -0.000001 -0.000000 -0.000000 -3.349048 -2.600436 57.010578 5.440871 -4.590888 99.698174 1.689398 -3.590703 50.382238 -0.000000 0.000000 -0.000000 -3.996461 -3.303955 64.593864 4.058880 -4.618640 82.610537 2.315548 -4.026785 59.787241 0.000000 -0.000000 0.000003 -29.752557 32.959846 26.881147 74.174488 -4.363558 1.659280 19.501428 -4.792669 21.263663 -54.476199 2.366966 -2.709266 -0.000000 0.000001 -0.000000 -21.423606 -6.407369 15.184497 50.841087 -3.089869 -5.091943 -16.253446 -27.610326 -8.864052 -0.545522 -0.000018 0.000006 0.000000 0.000003 0.000000 
